<?xml version="1.0" standalone="no"?><!DOCTYPE svg PUBLIC "-//W3C//DTD SVG 1.1//EN" "http://www.w3.org/Graphics/SVG/1.1/DTD/svg11.dtd"><svg t="1710494403128" class="icon" viewBox="0 0 1024 1024" version="1.1" xmlns="http://www.w3.org/2000/svg" p-id="1768" xmlns:xlink="http://www.w3.org/1999/xlink" width="200" height="200"><path d="M627.2 924.16a44.8 44.8 0 0 1-44.8 44.8H441.728a44.8 44.8 0 0 1 0-89.6h140.8a44.8 44.8 0 0 1 44.8 44.8zM558.08 108.8v34.176a326.656 326.656 0 0 1 280.128 309.504l0.256 13.824v286.848h13.952a44.8 44.8 0 0 1 0 89.6h-678.4a44.8 44.8 0 0 1 0-89.6h11.392V466.304a326.592 326.592 0 0 1 283.008-323.712V108.8a44.8 44.8 0 0 1 89.6 0z m-46.144 120.512A236.928 236.928 0 0 0 275.328 453.76l-0.32 12.608v286.848H748.8V466.304a236.928 236.928 0 0 0-236.928-236.992z" p-id="1769"></path></svg>